<mxfile host="65bd71144e" modified="2020-10-13T18:45:00.801Z" agent="5.0 (X11; Linux x86_64) AppleWebKit/537.36 (KHTML, like Gecko) Code-Insiders/1.51.0-insider Chrome/83.0.4103.122 Electron/9.2.1 Safari/537.36" etag="vAP4ZkguCebVdSsrbZWE" version="13.6.5">
    <diagram id="Cm83uvuodBMZl9RMiIEp" name="Page-1">
        <mxGraphModel dx="1027" dy="729" grid="1" gridSize="10" guides="1" tooltips="1" connect="1" arrows="1" fold="1" page="1" pageScale="1" pageWidth="850" pageHeight="1100" math="0" shadow="0">
            <root>
                <mxCell id="0"/>
                <mxCell id="1" parent="0"/>
                <mxCell id="4D5DgcxDDZrFNItTs5ni-1" value="&lt;div&gt;User&lt;/div&gt;" style="whiteSpace=wrap;html=1;align=center;" parent="1" vertex="1">
                    <mxGeometry x="200" y="240" width="100" height="40" as="geometry"/>
                </mxCell>
                <mxCell id="4D5DgcxDDZrFNItTs5ni-6" style="edgeStyle=orthogonalEdgeStyle;rounded=0;orthogonalLoop=1;jettySize=auto;html=1;exitX=0.5;exitY=1;exitDx=0;exitDy=0;entryX=0.5;entryY=0;entryDx=0;entryDy=0;endArrow=none;endFill=0;" parent="1" source="4D5DgcxDDZrFNItTs5ni-2" target="4D5DgcxDDZrFNItTs5ni-1" edge="1">
                    <mxGeometry relative="1" as="geometry"/>
                </mxCell>
                <mxCell id="4D5DgcxDDZrFNItTs5ni-2" value="&lt;div&gt;id&lt;/div&gt;" style="ellipse;whiteSpace=wrap;html=1;align=center;fontStyle=4;" parent="1" vertex="1">
                    <mxGeometry x="200" y="160" width="100" height="40" as="geometry"/>
                </mxCell>
                <mxCell id="4D5DgcxDDZrFNItTs5ni-7" style="edgeStyle=orthogonalEdgeStyle;rounded=0;orthogonalLoop=1;jettySize=auto;html=1;exitX=1;exitY=0.5;exitDx=0;exitDy=0;entryX=0;entryY=0.5;entryDx=0;entryDy=0;endArrow=none;endFill=0;" parent="1" source="4D5DgcxDDZrFNItTs5ni-3" target="4D5DgcxDDZrFNItTs5ni-1" edge="1">
                    <mxGeometry relative="1" as="geometry"/>
                </mxCell>
                <mxCell id="4D5DgcxDDZrFNItTs5ni-3" value="&lt;div&gt;email&lt;/div&gt;" style="ellipse;whiteSpace=wrap;html=1;align=center;" parent="1" vertex="1">
                    <mxGeometry x="60" y="240" width="100" height="40" as="geometry"/>
                </mxCell>
                <mxCell id="4D5DgcxDDZrFNItTs5ni-8" style="edgeStyle=orthogonalEdgeStyle;rounded=0;orthogonalLoop=1;jettySize=auto;html=1;exitX=0.5;exitY=0;exitDx=0;exitDy=0;endArrow=none;endFill=0;" parent="1" source="4D5DgcxDDZrFNItTs5ni-4" target="4D5DgcxDDZrFNItTs5ni-1" edge="1">
                    <mxGeometry relative="1" as="geometry"/>
                </mxCell>
                <mxCell id="4D5DgcxDDZrFNItTs5ni-4" value="&lt;div&gt;password_hash&lt;/div&gt;" style="ellipse;whiteSpace=wrap;html=1;align=center;" parent="1" vertex="1">
                    <mxGeometry x="70" y="320" width="100" height="40" as="geometry"/>
                </mxCell>
                <mxCell id="4D5DgcxDDZrFNItTs5ni-14" style="edgeStyle=orthogonalEdgeStyle;rounded=0;orthogonalLoop=1;jettySize=auto;html=1;exitX=0;exitY=0.5;exitDx=0;exitDy=0;entryX=1;entryY=0.5;entryDx=0;entryDy=0;endArrow=classic;endFill=1;" parent="1" source="4D5DgcxDDZrFNItTs5ni-10" target="4D5DgcxDDZrFNItTs5ni-1" edge="1">
                    <mxGeometry relative="1" as="geometry"/>
                </mxCell>
                <mxCell id="4D5DgcxDDZrFNItTs5ni-10" value="Images of User" style="shape=rhombus;double=1;perimeter=rhombusPerimeter;whiteSpace=wrap;html=1;align=center;" parent="1" vertex="1">
                    <mxGeometry x="365" y="230" width="120" height="60" as="geometry"/>
                </mxCell>
                <mxCell id="4D5DgcxDDZrFNItTs5ni-13" style="edgeStyle=orthogonalEdgeStyle;rounded=0;orthogonalLoop=1;jettySize=auto;html=1;exitX=1;exitY=0.5;exitDx=0;exitDy=0;entryX=0;entryY=0.5;entryDx=0;entryDy=0;endArrow=none;endFill=0;" parent="1" source="4D5DgcxDDZrFNItTs5ni-11" target="4D5DgcxDDZrFNItTs5ni-12" edge="1">
                    <mxGeometry relative="1" as="geometry"/>
                </mxCell>
                <mxCell id="4D5DgcxDDZrFNItTs5ni-15" style="edgeStyle=orthogonalEdgeStyle;rounded=0;orthogonalLoop=1;jettySize=auto;html=1;exitX=0;exitY=0.5;exitDx=0;exitDy=0;entryX=1;entryY=0.5;entryDx=0;entryDy=0;endArrow=none;endFill=0;" parent="1" source="4D5DgcxDDZrFNItTs5ni-11" target="4D5DgcxDDZrFNItTs5ni-10" edge="1">
                    <mxGeometry relative="1" as="geometry"/>
                </mxCell>
                <mxCell id="4D5DgcxDDZrFNItTs5ni-35" style="edgeStyle=orthogonalEdgeStyle;rounded=0;orthogonalLoop=1;jettySize=auto;html=1;exitX=0.5;exitY=1;exitDx=0;exitDy=0;entryX=0;entryY=0.5;entryDx=0;entryDy=0;endArrow=none;endFill=0;" parent="1" source="4D5DgcxDDZrFNItTs5ni-11" target="4D5DgcxDDZrFNItTs5ni-34" edge="1">
                    <mxGeometry relative="1" as="geometry"/>
                </mxCell>
                <mxCell id="4D5DgcxDDZrFNItTs5ni-39" style="edgeStyle=orthogonalEdgeStyle;rounded=0;orthogonalLoop=1;jettySize=auto;html=1;exitX=0.5;exitY=1;exitDx=0;exitDy=0;entryX=0;entryY=0.5;entryDx=0;entryDy=0;endArrow=none;endFill=0;" parent="1" source="4D5DgcxDDZrFNItTs5ni-11" target="4D5DgcxDDZrFNItTs5ni-38" edge="1">
                    <mxGeometry relative="1" as="geometry"/>
                </mxCell>
                <mxCell id="4D5DgcxDDZrFNItTs5ni-11" value="Image" style="shape=ext;margin=3;double=1;whiteSpace=wrap;html=1;align=center;" parent="1" vertex="1">
                    <mxGeometry x="550" y="240" width="100" height="40" as="geometry"/>
                </mxCell>
                <mxCell id="4D5DgcxDDZrFNItTs5ni-12" value="&lt;span style=&quot;border-bottom: 1px dotted&quot;&gt;id&lt;/span&gt;" style="ellipse;whiteSpace=wrap;html=1;align=center;" parent="1" vertex="1">
                    <mxGeometry x="690" y="240" width="100" height="40" as="geometry"/>
                </mxCell>
                <mxCell id="4D5DgcxDDZrFNItTs5ni-25" style="edgeStyle=orthogonalEdgeStyle;rounded=0;orthogonalLoop=1;jettySize=auto;html=1;entryX=1;entryY=0.5;entryDx=0;entryDy=0;endArrow=none;endFill=0;" parent="1" source="4D5DgcxDDZrFNItTs5ni-17" target="4D5DgcxDDZrFNItTs5ni-24" edge="1">
                    <mxGeometry relative="1" as="geometry"/>
                </mxCell>
                <mxCell id="4D5DgcxDDZrFNItTs5ni-17" value="&lt;div&gt;Category&lt;/div&gt;" style="whiteSpace=wrap;html=1;align=center;" parent="1" vertex="1">
                    <mxGeometry x="550" y="80" width="100" height="40" as="geometry"/>
                </mxCell>
                <mxCell id="4D5DgcxDDZrFNItTs5ni-19" style="edgeStyle=orthogonalEdgeStyle;rounded=0;orthogonalLoop=1;jettySize=auto;html=1;exitX=0.5;exitY=1;exitDx=0;exitDy=0;entryX=0.5;entryY=0;entryDx=0;entryDy=0;endArrow=none;endFill=0;" parent="1" source="4D5DgcxDDZrFNItTs5ni-18" target="4D5DgcxDDZrFNItTs5ni-11" edge="1">
                    <mxGeometry relative="1" as="geometry"/>
                </mxCell>
                <mxCell id="4D5DgcxDDZrFNItTs5ni-20" style="edgeStyle=orthogonalEdgeStyle;rounded=0;orthogonalLoop=1;jettySize=auto;html=1;exitX=0.5;exitY=0;exitDx=0;exitDy=0;entryX=0.5;entryY=1;entryDx=0;entryDy=0;endArrow=none;endFill=0;" parent="1" source="4D5DgcxDDZrFNItTs5ni-18" target="4D5DgcxDDZrFNItTs5ni-17" edge="1">
                    <mxGeometry relative="1" as="geometry"/>
                </mxCell>
                <mxCell id="4D5DgcxDDZrFNItTs5ni-18" value="Image Category" style="shape=rhombus;perimeter=rhombusPerimeter;whiteSpace=wrap;html=1;align=center;" parent="1" vertex="1">
                    <mxGeometry x="540" y="150" width="120" height="60" as="geometry"/>
                </mxCell>
                <mxCell id="4D5DgcxDDZrFNItTs5ni-23" style="edgeStyle=orthogonalEdgeStyle;rounded=0;orthogonalLoop=1;jettySize=auto;html=1;exitX=0.5;exitY=1;exitDx=0;exitDy=0;entryX=0.5;entryY=0;entryDx=0;entryDy=0;endArrow=none;endFill=0;" parent="1" source="4D5DgcxDDZrFNItTs5ni-22" target="4D5DgcxDDZrFNItTs5ni-17" edge="1">
                    <mxGeometry relative="1" as="geometry"/>
                </mxCell>
                <mxCell id="4D5DgcxDDZrFNItTs5ni-22" value="id" style="ellipse;whiteSpace=wrap;html=1;align=center;fontStyle=4;" parent="1" vertex="1">
                    <mxGeometry x="550" y="10" width="100" height="40" as="geometry"/>
                </mxCell>
                <mxCell id="4D5DgcxDDZrFNItTs5ni-24" value="category_name" style="ellipse;whiteSpace=wrap;html=1;align=center;" parent="1" vertex="1">
                    <mxGeometry x="425" y="80" width="100" height="40" as="geometry"/>
                </mxCell>
                <mxCell id="4D5DgcxDDZrFNItTs5ni-32" style="edgeStyle=orthogonalEdgeStyle;rounded=0;orthogonalLoop=1;jettySize=auto;html=1;exitX=0.5;exitY=0;exitDx=0;exitDy=0;entryX=0.5;entryY=1;entryDx=0;entryDy=0;endArrow=none;endFill=0;" parent="1" source="4D5DgcxDDZrFNItTs5ni-31" target="4D5DgcxDDZrFNItTs5ni-1" edge="1">
                    <mxGeometry relative="1" as="geometry"/>
                </mxCell>
                <mxCell id="4D5DgcxDDZrFNItTs5ni-31" value="&lt;div&gt;is_admin&lt;/div&gt;" style="ellipse;whiteSpace=wrap;html=1;align=center;" parent="1" vertex="1">
                    <mxGeometry x="180" y="320" width="100" height="40" as="geometry"/>
                </mxCell>
                <mxCell id="4D5DgcxDDZrFNItTs5ni-34" value="title" style="ellipse;whiteSpace=wrap;html=1;align=center;" parent="1" vertex="1">
                    <mxGeometry x="690" y="360" width="100" height="40" as="geometry"/>
                </mxCell>
                <mxCell id="4D5DgcxDDZrFNItTs5ni-37" style="edgeStyle=orthogonalEdgeStyle;rounded=0;orthogonalLoop=1;jettySize=auto;html=1;exitX=0;exitY=0.5;exitDx=0;exitDy=0;entryX=0.5;entryY=1;entryDx=0;entryDy=0;endArrow=none;endFill=0;" parent="1" source="4D5DgcxDDZrFNItTs5ni-36" target="4D5DgcxDDZrFNItTs5ni-11" edge="1">
                    <mxGeometry relative="1" as="geometry"/>
                </mxCell>
                <mxCell id="4D5DgcxDDZrFNItTs5ni-36" value="upload_date" style="ellipse;whiteSpace=wrap;html=1;align=center;" parent="1" vertex="1">
                    <mxGeometry x="690" y="300" width="100" height="40" as="geometry"/>
                </mxCell>
                <mxCell id="4D5DgcxDDZrFNItTs5ni-38" value="description" style="ellipse;whiteSpace=wrap;html=1;align=center;" parent="1" vertex="1">
                    <mxGeometry x="690" y="420" width="100" height="40" as="geometry"/>
                </mxCell>
                <mxCell id="4D5DgcxDDZrFNItTs5ni-42" value="Rating" style="shape=ext;margin=3;double=1;whiteSpace=wrap;html=1;align=center;" parent="1" vertex="1">
                    <mxGeometry x="375" y="400" width="100" height="40" as="geometry"/>
                </mxCell>
                <mxCell id="4D5DgcxDDZrFNItTs5ni-46" style="edgeStyle=orthogonalEdgeStyle;rounded=0;orthogonalLoop=1;jettySize=auto;html=1;exitX=0.5;exitY=1;exitDx=0;exitDy=0;entryX=0;entryY=0.5;entryDx=0;entryDy=0;endArrow=none;endFill=0;" parent="1" source="4D5DgcxDDZrFNItTs5ni-43" target="4D5DgcxDDZrFNItTs5ni-42" edge="1">
                    <mxGeometry relative="1" as="geometry"/>
                </mxCell>
                <mxCell id="4D5DgcxDDZrFNItTs5ni-47" style="edgeStyle=orthogonalEdgeStyle;rounded=0;orthogonalLoop=1;jettySize=auto;html=1;exitX=0.5;exitY=0;exitDx=0;exitDy=0;entryX=0.75;entryY=1;entryDx=0;entryDy=0;endArrow=classic;endFill=1;" parent="1" source="4D5DgcxDDZrFNItTs5ni-43" target="4D5DgcxDDZrFNItTs5ni-1" edge="1">
                    <mxGeometry relative="1" as="geometry"/>
                </mxCell>
                <mxCell id="4D5DgcxDDZrFNItTs5ni-43" value="User Rating" style="shape=rhombus;double=1;perimeter=rhombusPerimeter;whiteSpace=wrap;html=1;align=center;" parent="1" vertex="1">
                    <mxGeometry x="290" y="320" width="120" height="60" as="geometry"/>
                </mxCell>
                <mxCell id="4D5DgcxDDZrFNItTs5ni-45" style="edgeStyle=orthogonalEdgeStyle;rounded=0;orthogonalLoop=1;jettySize=auto;html=1;exitX=0.5;exitY=1;exitDx=0;exitDy=0;entryX=1;entryY=0.5;entryDx=0;entryDy=0;endArrow=none;endFill=0;" parent="1" source="4D5DgcxDDZrFNItTs5ni-44" target="4D5DgcxDDZrFNItTs5ni-42" edge="1">
                    <mxGeometry relative="1" as="geometry"/>
                </mxCell>
                <mxCell id="4D5DgcxDDZrFNItTs5ni-48" style="edgeStyle=orthogonalEdgeStyle;rounded=0;orthogonalLoop=1;jettySize=auto;html=1;exitX=0.5;exitY=0;exitDx=0;exitDy=0;entryX=0.25;entryY=1;entryDx=0;entryDy=0;endArrow=classic;endFill=1;" parent="1" source="4D5DgcxDDZrFNItTs5ni-44" target="4D5DgcxDDZrFNItTs5ni-11" edge="1">
                    <mxGeometry relative="1" as="geometry"/>
                </mxCell>
                <mxCell id="4D5DgcxDDZrFNItTs5ni-44" value="Image Rating" style="shape=rhombus;double=1;perimeter=rhombusPerimeter;whiteSpace=wrap;html=1;align=center;" parent="1" vertex="1">
                    <mxGeometry x="440" y="320" width="120" height="60" as="geometry"/>
                </mxCell>
                <mxCell id="4D5DgcxDDZrFNItTs5ni-52" style="edgeStyle=orthogonalEdgeStyle;rounded=0;orthogonalLoop=1;jettySize=auto;html=1;entryX=0.25;entryY=1;entryDx=0;entryDy=0;endArrow=none;endFill=0;" parent="1" source="4D5DgcxDDZrFNItTs5ni-49" target="4D5DgcxDDZrFNItTs5ni-42" edge="1">
                    <mxGeometry relative="1" as="geometry">
                        <Array as="points">
                            <mxPoint x="325" y="460"/>
                            <mxPoint x="400" y="460"/>
                        </Array>
                    </mxGeometry>
                </mxCell>
                <mxCell id="4D5DgcxDDZrFNItTs5ni-49" value="&lt;span style=&quot;border-bottom: 1px dotted&quot;&gt;user_id&lt;/span&gt;" style="ellipse;whiteSpace=wrap;html=1;align=center;" parent="1" vertex="1">
                    <mxGeometry x="265" y="470" width="100" height="40" as="geometry"/>
                </mxCell>
                <mxCell id="4D5DgcxDDZrFNItTs5ni-51" style="edgeStyle=orthogonalEdgeStyle;rounded=0;orthogonalLoop=1;jettySize=auto;html=1;exitX=0.5;exitY=0;exitDx=0;exitDy=0;entryX=0.75;entryY=1;entryDx=0;entryDy=0;endArrow=none;endFill=0;" parent="1" source="4D5DgcxDDZrFNItTs5ni-50" target="4D5DgcxDDZrFNItTs5ni-42" edge="1">
                    <mxGeometry relative="1" as="geometry">
                        <Array as="points">
                            <mxPoint x="540" y="460"/>
                            <mxPoint x="450" y="460"/>
                        </Array>
                    </mxGeometry>
                </mxCell>
                <mxCell id="4D5DgcxDDZrFNItTs5ni-50" value="&lt;span style=&quot;border-bottom: 1px dotted&quot;&gt;image_id&lt;/span&gt;" style="ellipse;whiteSpace=wrap;html=1;align=center;" parent="1" vertex="1">
                    <mxGeometry x="490" y="470" width="100" height="40" as="geometry"/>
                </mxCell>
                <mxCell id="4D5DgcxDDZrFNItTs5ni-54" style="edgeStyle=orthogonalEdgeStyle;rounded=0;orthogonalLoop=1;jettySize=auto;html=1;entryX=0.5;entryY=1;entryDx=0;entryDy=0;endArrow=none;endFill=0;" parent="1" source="4D5DgcxDDZrFNItTs5ni-53" target="4D5DgcxDDZrFNItTs5ni-42" edge="1">
                    <mxGeometry relative="1" as="geometry"/>
                </mxCell>
                <mxCell id="4D5DgcxDDZrFNItTs5ni-53" value="value" style="ellipse;whiteSpace=wrap;html=1;align=center;" parent="1" vertex="1">
                    <mxGeometry x="375" y="470" width="100" height="40" as="geometry"/>
                </mxCell>
            </root>
        </mxGraphModel>
    </diagram>
</mxfile>